<svg xmlns="http://www.w3.org/2000/svg" viewBox="0 0 129.65 136.83"><defs><style>.cls-1{fill:#f2d961;}</style></defs><title>moon</title><g id="레이어_2" data-name="레이어 2"><g id="레이어_15" data-name="레이어 15"><g id="_그룹_" data-name="&lt;그룹&gt;"><rect class="cls-1" x="92.61" y="122.17" width="6.17" height="4.89"/><rect class="cls-1" x="117.3" y="97.74" width="6.18" height="4.88"/><rect class="cls-1" x="104.96" y="112.4" width="6.17" height="4.88"/><rect class="cls-1" y="112.4" width="6.18" height="4.88"/><rect class="cls-1" x="6.18" y="117.28" width="6.17" height="4.89"/><rect class="cls-1" x="55.57" y="102.62" width="6.17" height="4.89"/><rect class="cls-1" x="80.26" y="83.08" width="6.18" height="4.88"/><rect class="cls-1" x="86.44" y="68.41" width="6.17" height="4.89"/><rect class="cls-1" x="104.96" y="19.55" width="6.17" height="4.88"/><rect class="cls-1" x="123.48" y="48.87" width="6.17" height="4.88"/><rect class="cls-1" x="117.3" y="39.09" width="6.18" height="4.89"/><rect class="cls-1" x="111.13" y="29.32" width="6.17" height="4.89"/><rect class="cls-1" x="80.26" y="19.55" width="6.18" height="4.88"/><rect class="cls-1" x="123.48" y="83.08" width="6.17" height="4.88"/><rect class="cls-1" x="117.3" y="92.85" width="6.18" height="4.89"/><rect class="cls-1" x="111.13" y="102.62" width="6.17" height="4.89"/><rect class="cls-1" x="98.78" y="117.28" width="6.18" height="4.89"/><rect class="cls-1" x="67.91" y="97.74" width="6.18" height="4.88"/><rect class="cls-1" x="61.74" y="102.62" width="6.17" height="4.89"/><rect class="cls-1" x="86.44" y="34.21" width="6.17" height="4.88"/><rect class="cls-1" x="86.44" y="29.32" width="6.17" height="4.89"/><rect class="cls-1" x="92.61" y="58.64" width="6.17" height="4.89"/><rect class="cls-1" x="92.61" y="53.75" width="6.17" height="4.89"/><rect class="cls-1" x="92.61" y="48.87" width="6.17" height="4.88"/><rect class="cls-1" x="92.61" y="43.98" width="6.17" height="4.89"/><rect class="cls-1" x="74.09" y="127.06" width="6.17" height="4.88"/><rect class="cls-1" x="74.09" y="122.17" width="6.17" height="4.89"/><rect class="cls-1" x="74.09" y="117.28" width="6.17" height="4.89"/><rect class="cls-1" x="74.09" y="112.4" width="6.17" height="4.88"/><rect class="cls-1" x="74.09" y="107.51" width="6.17" height="4.89"/><rect class="cls-1" x="74.09" y="102.62" width="6.17" height="4.89"/><rect class="cls-1" x="74.09" y="97.74" width="6.17" height="4.88"/><rect class="cls-1" x="74.09" y="92.85" width="6.17" height="4.89"/><rect class="cls-1" x="67.91" y="112.4" width="6.18" height="4.88"/><rect class="cls-1" x="67.91" y="107.51" width="6.18" height="4.89"/><rect class="cls-1" x="67.91" y="102.62" width="6.18" height="4.89"/><rect class="cls-1" x="67.91" y="122.17" width="6.18" height="4.89"/><rect class="cls-1" x="67.91" y="117.28" width="6.18" height="4.89"/><rect class="cls-1" x="61.74" y="131.94" width="6.17" height="4.89"/><rect class="cls-1" x="61.74" y="127.06" width="6.17" height="4.88"/><rect class="cls-1" x="61.74" y="122.17" width="6.17" height="4.89"/><rect class="cls-1" x="61.74" y="117.28" width="6.17" height="4.89"/><rect class="cls-1" x="61.74" y="112.4" width="6.17" height="4.88"/><rect class="cls-1" x="61.74" y="107.51" width="6.17" height="4.89"/><rect class="cls-1" x="67.91" y="131.94" width="6.18" height="4.89"/><rect class="cls-1" x="67.91" y="127.06" width="6.18" height="4.88"/><rect class="cls-1" x="55.57" y="131.94" width="6.17" height="4.89"/><rect class="cls-1" x="55.57" y="127.06" width="6.17" height="4.88"/><rect class="cls-1" x="55.57" y="122.17" width="6.17" height="4.89"/><rect class="cls-1" x="55.57" y="117.28" width="6.17" height="4.89"/><rect class="cls-1" x="55.57" y="112.4" width="6.17" height="4.88"/><rect class="cls-1" x="55.57" y="107.51" width="6.17" height="4.89"/><rect class="cls-1" x="49.39" y="131.94" width="6.18" height="4.89"/><rect class="cls-1" x="49.39" y="127.06" width="6.18" height="4.88"/><rect class="cls-1" x="49.39" y="122.17" width="6.18" height="4.89"/><rect class="cls-1" x="49.39" y="117.28" width="6.18" height="4.89"/><rect class="cls-1" x="49.39" y="112.4" width="6.18" height="4.88"/><rect class="cls-1" x="49.39" y="107.51" width="6.18" height="4.89"/><rect class="cls-1" x="43.22" y="131.94" width="6.17" height="4.89"/><rect class="cls-1" x="43.22" y="127.06" width="6.17" height="4.88"/><rect class="cls-1" x="43.22" y="122.17" width="6.17" height="4.89"/><rect class="cls-1" x="43.22" y="117.28" width="6.17" height="4.89"/><rect class="cls-1" x="43.22" y="112.4" width="6.17" height="4.88"/><rect class="cls-1" x="43.22" y="107.51" width="6.17" height="4.89"/><rect class="cls-1" x="37.05" y="131.94" width="6.17" height="4.89"/><rect class="cls-1" x="37.05" y="127.06" width="6.17" height="4.88"/><rect class="cls-1" x="37.05" y="122.17" width="6.17" height="4.89"/><rect class="cls-1" x="37.05" y="117.28" width="6.17" height="4.89"/><rect class="cls-1" x="37.05" y="112.4" width="6.17" height="4.88"/><rect class="cls-1" x="30.87" y="127.06" width="6.18" height="4.88"/><rect class="cls-1" x="30.87" y="122.17" width="6.18" height="4.89"/><rect class="cls-1" x="30.87" y="117.28" width="6.18" height="4.89"/><rect class="cls-1" x="30.87" y="112.4" width="6.18" height="4.88"/><rect class="cls-1" x="24.7" y="127.06" width="6.17" height="4.88"/><rect class="cls-1" x="24.7" y="122.17" width="6.17" height="4.89"/><rect class="cls-1" x="24.7" y="117.28" width="6.17" height="4.89"/><rect class="cls-1" x="24.7" y="112.4" width="6.17" height="4.88"/><rect class="cls-1" x="18.53" y="122.17" width="6.17" height="4.89"/><rect class="cls-1" x="18.53" y="117.28" width="6.17" height="4.89"/><rect class="cls-1" x="18.53" y="112.4" width="6.17" height="4.88"/><rect class="cls-1" x="12.35" y="117.28" width="6.18" height="4.89"/><rect class="cls-1" x="12.35" y="112.4" width="6.18" height="4.88"/><rect class="cls-1" x="12.35" y="107.51" width="6.18" height="4.89"/><rect class="cls-1" x="6.18" y="112.4" width="6.17" height="4.88"/><rect class="cls-1" x="6.18" y="107.51" width="6.17" height="4.89"/><rect class="cls-1" y="107.51" width="6.18" height="4.89"/><rect class="cls-1" x="86.44" y="122.17" width="6.17" height="4.89"/><rect class="cls-1" x="86.44" y="117.28" width="6.17" height="4.89"/><rect class="cls-1" x="80.26" y="127.06" width="6.18" height="4.88"/><rect class="cls-1" x="80.26" y="122.17" width="6.18" height="4.89"/><rect class="cls-1" x="80.26" y="117.28" width="6.18" height="4.89"/><rect class="cls-1" x="80.26" y="112.4" width="6.18" height="4.88"/><rect class="cls-1" x="80.26" y="107.51" width="6.18" height="4.89"/><rect class="cls-1" x="80.26" y="102.62" width="6.18" height="4.89"/><rect class="cls-1" x="80.26" y="97.74" width="6.18" height="4.88"/><rect class="cls-1" x="80.26" y="92.85" width="6.18" height="4.89"/><rect class="cls-1" x="80.26" y="87.96" width="6.18" height="4.89"/><rect class="cls-1" x="86.44" y="97.74" width="6.17" height="4.88"/><rect class="cls-1" x="86.44" y="92.85" width="6.17" height="4.89"/><rect class="cls-1" x="86.44" y="87.96" width="6.17" height="4.89"/><rect class="cls-1" x="86.44" y="83.08" width="6.17" height="4.88"/><rect class="cls-1" x="86.44" y="78.19" width="6.17" height="4.89"/><rect class="cls-1" x="86.44" y="73.3" width="6.17" height="4.89"/><rect class="cls-1" x="92.61" y="102.62" width="6.17" height="4.89"/><rect class="cls-1" x="92.61" y="97.74" width="6.17" height="4.88"/><rect class="cls-1" x="92.61" y="92.85" width="6.17" height="4.89"/><rect class="cls-1" x="92.61" y="87.96" width="6.17" height="4.89"/><rect class="cls-1" x="92.61" y="83.08" width="6.17" height="4.88"/><rect class="cls-1" x="92.61" y="78.19" width="6.17" height="4.89"/><rect class="cls-1" x="92.61" y="73.3" width="6.17" height="4.89"/><rect class="cls-1" x="92.61" y="68.41" width="6.17" height="4.89"/><rect class="cls-1" x="92.61" y="63.53" width="6.17" height="4.88"/><rect class="cls-1" x="86.44" y="112.4" width="6.17" height="4.88"/><rect class="cls-1" x="86.44" y="107.51" width="6.17" height="4.89"/><rect class="cls-1" x="86.44" y="102.62" width="6.17" height="4.89"/><rect class="cls-1" x="92.61" y="117.28" width="6.17" height="4.89"/><rect class="cls-1" x="98.78" y="112.4" width="6.18" height="4.88"/><rect class="cls-1" x="92.61" y="112.4" width="6.17" height="4.88"/><rect class="cls-1" x="92.61" y="107.51" width="6.17" height="4.89"/><rect class="cls-1" x="98.78" y="107.51" width="6.18" height="4.89"/><rect class="cls-1" x="98.78" y="102.62" width="6.18" height="4.89"/><rect class="cls-1" x="98.78" y="97.74" width="6.18" height="4.88"/><rect class="cls-1" x="98.78" y="92.85" width="6.18" height="4.89"/><rect class="cls-1" x="98.78" y="87.96" width="6.18" height="4.89"/><rect class="cls-1" x="104.96" y="107.51" width="6.17" height="4.89"/><rect class="cls-1" x="104.96" y="102.62" width="6.17" height="4.89"/><rect class="cls-1" x="104.96" y="97.74" width="6.17" height="4.88"/><rect class="cls-1" x="104.96" y="92.85" width="6.17" height="4.89"/><rect class="cls-1" x="104.96" y="87.96" width="6.17" height="4.89"/><rect class="cls-1" x="111.13" y="97.74" width="6.17" height="4.88"/><rect class="cls-1" x="111.13" y="92.85" width="6.17" height="4.89"/><rect class="cls-1" x="117.3" y="87.96" width="6.18" height="4.89"/><rect class="cls-1" x="123.48" y="78.19" width="6.17" height="4.89"/><rect class="cls-1" x="123.48" y="73.3" width="6.17" height="4.89"/><rect class="cls-1" x="123.48" y="68.41" width="6.17" height="4.89"/><rect class="cls-1" x="123.48" y="63.53" width="6.17" height="4.88"/><rect class="cls-1" x="123.48" y="58.64" width="6.17" height="4.89"/><rect class="cls-1" x="123.48" y="53.75" width="6.17" height="4.89"/><rect class="cls-1" x="117.3" y="83.08" width="6.18" height="4.88"/><rect class="cls-1" x="117.3" y="78.19" width="6.18" height="4.89"/><rect class="cls-1" x="117.3" y="73.3" width="6.18" height="4.89"/><rect class="cls-1" x="117.3" y="68.41" width="6.18" height="4.89"/><rect class="cls-1" x="117.3" y="63.53" width="6.18" height="4.88"/><rect class="cls-1" x="117.3" y="58.64" width="6.18" height="4.89"/><rect class="cls-1" x="117.3" y="53.75" width="6.18" height="4.89"/><rect class="cls-1" x="117.3" y="48.87" width="6.18" height="4.88"/><rect class="cls-1" x="117.3" y="43.98" width="6.18" height="4.89"/><rect class="cls-1" x="111.13" y="87.96" width="6.17" height="4.89"/><rect class="cls-1" x="111.13" y="83.08" width="6.17" height="4.88"/><rect class="cls-1" x="111.13" y="78.19" width="6.17" height="4.89"/><rect class="cls-1" x="111.13" y="73.3" width="6.17" height="4.89"/><rect class="cls-1" x="111.13" y="68.41" width="6.17" height="4.89"/><rect class="cls-1" x="111.13" y="63.53" width="6.17" height="4.88"/><rect class="cls-1" x="111.13" y="58.64" width="6.17" height="4.89"/><rect class="cls-1" x="111.13" y="53.75" width="6.17" height="4.89"/><rect class="cls-1" x="111.13" y="48.87" width="6.17" height="4.88"/><rect class="cls-1" x="111.13" y="43.98" width="6.17" height="4.89"/><rect class="cls-1" x="111.13" y="39.09" width="6.17" height="4.89"/><rect class="cls-1" x="111.13" y="34.21" width="6.17" height="4.88"/><rect class="cls-1" x="98.78" y="83.08" width="6.18" height="4.88"/><rect class="cls-1" x="104.96" y="83.08" width="6.17" height="4.88"/><rect class="cls-1" x="104.96" y="78.19" width="6.17" height="4.89"/><rect class="cls-1" x="104.96" y="73.3" width="6.17" height="4.89"/><rect class="cls-1" x="104.96" y="68.41" width="6.17" height="4.89"/><rect class="cls-1" x="104.96" y="63.53" width="6.17" height="4.88"/><rect class="cls-1" x="104.96" y="58.64" width="6.17" height="4.89"/><rect class="cls-1" x="104.96" y="53.75" width="6.17" height="4.89"/><rect class="cls-1" x="104.96" y="48.87" width="6.17" height="4.88"/><rect class="cls-1" x="104.96" y="43.98" width="6.17" height="4.89"/><rect class="cls-1" x="104.96" y="39.09" width="6.17" height="4.89"/><rect class="cls-1" x="104.96" y="34.21" width="6.17" height="4.88"/><rect class="cls-1" x="104.96" y="29.32" width="6.17" height="4.89"/><rect class="cls-1" x="104.96" y="24.43" width="6.17" height="4.89"/><rect class="cls-1" x="98.78" y="78.19" width="6.18" height="4.89"/><rect class="cls-1" x="98.78" y="73.3" width="6.18" height="4.89"/><rect class="cls-1" x="98.78" y="68.41" width="6.18" height="4.89"/><rect class="cls-1" x="98.78" y="63.53" width="6.18" height="4.88"/><rect class="cls-1" x="98.78" y="58.64" width="6.18" height="4.89"/><rect class="cls-1" x="98.78" y="53.75" width="6.18" height="4.89"/><rect class="cls-1" x="98.78" y="48.87" width="6.18" height="4.88"/><rect class="cls-1" x="98.78" y="43.98" width="6.18" height="4.89"/><rect class="cls-1" x="98.78" y="39.09" width="6.18" height="4.89"/><rect class="cls-1" x="98.78" y="34.21" width="6.18" height="4.88"/><rect class="cls-1" x="98.78" y="29.32" width="6.18" height="4.89"/><rect class="cls-1" x="98.78" y="24.43" width="6.18" height="4.89"/><rect class="cls-1" x="98.78" y="19.55" width="6.18" height="4.88"/><rect class="cls-1" x="98.78" y="14.66" width="6.18" height="4.89"/><rect class="cls-1" x="92.61" y="39.09" width="6.17" height="4.89"/><rect class="cls-1" x="92.61" y="34.21" width="6.17" height="4.88"/><rect class="cls-1" x="92.61" y="29.32" width="6.17" height="4.89"/><rect class="cls-1" x="92.61" y="24.43" width="6.17" height="4.89"/><rect class="cls-1" x="92.61" y="19.55" width="6.17" height="4.88"/><rect class="cls-1" x="92.61" y="14.66" width="6.17" height="4.89"/><rect class="cls-1" x="86.44" y="24.43" width="6.17" height="4.89"/><rect class="cls-1" x="86.44" y="19.55" width="6.17" height="4.88"/><rect class="cls-1" x="86.44" y="14.66" width="6.17" height="4.89"/><rect class="cls-1" x="86.44" y="9.77" width="6.17" height="4.89"/><rect class="cls-1" x="80.26" y="14.66" width="6.18" height="4.89"/><rect class="cls-1" x="80.26" y="9.77" width="6.18" height="4.89"/><rect class="cls-1" x="80.26" y="4.89" width="6.18" height="4.88"/><rect class="cls-1" x="74.09" y="9.77" width="6.17" height="4.89"/><rect class="cls-1" x="74.09" y="4.89" width="6.17" height="4.88"/><rect class="cls-1" x="67.91" y="4.89" width="6.18" height="4.88"/><rect class="cls-1" x="67.91" width="6.18" height="4.89"/><rect class="cls-1" x="61.74" width="6.17" height="4.89"/><rect class="cls-1" x="55.57" width="6.17" height="4.89"/></g></g></g></svg>